:SAMPLES-PER-SECOND 30
:FULLY-SPECIFIED
:DEGREES
302
root  -9.51198 40.2761 5.35456 -160.979 -85.2917 157.071
RightUpLeg  -6.54545 -13.4605 -7.7161
RightLeg  19.2701 0.159603 0.106066
RightFoot  -6.7328 -0.127501 2.03525
RightToes  -2.9104e-010 0 -3.6325e-017
Spine  15.9754 -0.8807 7.90063
Spine1  17.3427 1.65871 -4.22043
HEad  -30.4987 -12.1324 5.2736
LeftShoulder1  8.33045 -13.0971 -43.6677
LeftArm  -15.6783 9.43318 -29.8855
LeftForeArm  38.5965 -38.9051 -6.63803
LeftHand  -0.244104 0.0205437 5.32207
RightShoulder  6.61068 11.3927 38.3178
RightArm  -8.11739 -7.89176 33.9596
RightForeArm  6.9164 10.5916 6.8216
RightHand  -0.965462 1.85821 -15.5958
LeftUpLeg  -9.90571 6.71346 4.03946
LeftLeg  9.63251 -3.34588 -1.98427
LeftFoot  6.51592 0.301726 -2.17569
LeftToes  -1.62803e-010 -2.57217e-011 -2.5681e-011
303
root  -9.07067 40.2883 4.9033 -157.236 -85.7672 153.652
RightUpLeg  -7.46079 -15.3209 -7.02941
RightLeg  19.2434 0.940149 0.657558
RightFoot  -6.01905 -0.0834321 0.917856
RightToes  -2.9104e-010 0 -3.6325e-017
Spine  16.3198 -1.12814 7.92062
Spine1  17.0585 1.13671 -3.5092
HEad  -31.538 -11.9439 6.02077
LeftShoulder1  8.30521 -13.0037 -43.7878
LeftArm  -14.5272 10.0492 -30.4938
LeftForeArm  40.3283 -36.66 -5.93334
LeftHand  -0.244104 0.0205437 5.32207
RightShoulder  6.46622 11.1679 38.0254
RightArm  -4.21564 -9.64684 33.0574
RightForeArm  5.84272 12.3706 7.05376
RightHand  -1.01678 1.83053 -16.4499
LeftUpLeg  -10.3597 6.13517 4.64571
LeftLeg  8.07397 -3.16415 -2.06364
LeftFoot  8.70037 0.419373 -2.66312
LeftToes  -1.62803e-010 -2.57217e-011 -2.5681e-011
304
root  -8.61006 40.3183 4.47362 -149.776 -86.3165 146.495
RightUpLeg  -8.21602 -16.9519 -6.55222
RightLeg  18.942 1.40408 1.27611
RightFoot  -5.15634 -0.029067 -0.110594
RightToes  -2.9104e-010 0 -3.6325e-017
Spine  16.6479 -1.22691 7.9455
Spine1  16.826 0.752185 -2.73571
HEad  -32.4726 -12.1517 7.02012
LeftShoulder1  8.34194 -13.0302 -43.9175
LeftArm  -13.3134 10.4657 -31.2845
LeftForeArm  40.9668 -33.6963 -5.15257
LeftHand  -0.244104 0.0205437 5.32207
RightShoulder  6.30754 10.9365 37.6478
RightArm  -0.385229 -11.3907 32.321
RightForeArm  2.3249 14.4443 7.0189
RightHand  -0.975025 1.5001 -16.5126
LeftUpLeg  -10.6442 5.51813 5.0818
LeftLeg  6.0759 -1.64345 -2.12694
LeftFoot  11.0958 0.678134 -3.76068
LeftToes  -1.62803e-010 -2.57217e-011 -2.5681e-011
305
root  -8.14617 40.352 4.09071 -138.555 -86.7245 135.437
RightUpLeg  -8.82564 -17.813 -6.25834
RightLeg  18.5856 1.17873 1.70687
RightFoot  -4.30664 0.04055 -1.1331
RightToes  -2.9104e-010 0 -3.6325e-017
Spine  17.0074 -1.27406 7.99338
Spine1  16.5174 0.483258 -2.09736
HEad  -32.9308 -12.5855 7.92678
LeftShoulder1  8.3953 -13.1077 -43.9965
LeftArm  -12.1037 11.0295 -32.1373
LeftForeArm  40.0724 -30.5058 -4.45151
LeftHand  -0.244104 0.0205437 5.32207
RightShoulder  6.18979 10.7868 37.2944
RightArm  3.74036 -13.1538 31.7302
RightForeArm  -2.64863 16.7827 6.70859
RightHand  -1.00608 1.56172 -16.8772
LeftUpLeg  -10.8483 5.69737 5.12728
LeftLeg  5.1593 1.29869 -2.22675
LeftFoot  11.4946 0.891717 -4.77591
LeftToes  -1.62803e-010 -2.57217e-011 -2.5681e-011
306
root  -7.69422 40.4017 3.7619 -124.724 -86.7624 121.603
RightUpLeg  -9.25107 -18.0321 -6.2094
RightLeg  18.1162 0.548948 1.89438
RightFoot  -3.40953 0.123757 -2.11748
RightToes  -2.9104e-010 0 -3.6325e-017
Spine  17.1799 -1.34007 7.82793
Spine1  16.3379 0.250843 -1.6841
HEad  -32.8076 -12.9947 8.55026
LeftShoulder1  8.40506 -13.1162 -44.0265
LeftArm  -10.9525 11.7512 -32.8736
LeftForeArm  38.193 -27.4202 -3.86325
LeftHand  -0.244104 0.0205437 5.32207
RightShoulder  6.12031 10.6958 37.0892
RightArm  7.65931 -14.6 31.2811
RightForeArm  -6.76223 19.1114 6.17104
RightHand  -1.10883 1.96897 -17.5735
LeftUpLeg  -11.0474 7.47412 4.35725
LeftLeg  6.77183 4.45503 -1.94566
LeftFoot  8.51321 0.753595 -4.57351
LeftToes  -1.62803e-010 -2.57217e-011 -2.5681e-011
307
root  -7.26918 40.4629 3.48941 -112.583 -86.4485 109.315
RightUpLeg  -9.42258 -17.9141 -6.45309
RightLeg  17.4912 -0.143625 2.05739
RightFoot  -2.43552 0.199218 -2.77185
RightToes  -2.9104e-010 0 -3.6325e-017
Spine  17.0129 -1.41402 7.43593
Spine1  16.4424 0.00310253 -1.31924
HEad  -32.2473 -13.3339 8.74759
LeftShoulder1  8.38005 -13.039 -44.104
LeftArm  -9.83423 12.4645 -33.4298
LeftForeArm  36.4167 -24.4844 -3.36002
LeftHand  -0.244104 0.0205437 5.32207
RightShoulder  6.02163 10.5307 36.8989
RightArm  10.4937 -15.5857 31.0926
RightForeArm  -9.06531 21.2297 5.66615
RightHand  -1.19663 2.26666 -18.2234
LeftUpLeg  -11.0374 11.4359 2.6227
LeftLeg  10.624 6.14068 -0.440364
LeftFoot  3.42339 0.411744 -3.31979
LeftToes  -1.62803e-010 -2.57217e-011 -2.5681e-011
308
root  -6.85922 40.5162 3.2737 -104.919 -86.1035 101.374
RightUpLeg  -9.30977 -17.4534 -6.81804
RightLeg  16.6771 -1.00838 2.36461
RightFoot  -1.43855 0.256619 -3.07327
RightToes  -2.9104e-010 0 -3.6325e-017
Spine  16.632 -1.47458 7.14083
Spine1  16.5797 -0.260486 -0.83078
HEad  -31.5433 -13.7034 8.48255
LeftShoulder1  8.35066 -12.9355 -44.2321
LeftArm  -9.13905 13.2051 -33.8659
LeftForeArm  35.6907 -21.8126 -3.12008
LeftHand  -0.244104 0.0205437 5.32207
RightShoulder  5.83743 10.2305 36.5069
RightArm  11.4708 -16.3931 31.3279
RightForeArm  -9.82118 23.2422 5.51644
RightHand  -1.24004 2.3571 -18.6542
LeftUpLeg  -10.4515 15.6059 0.861868
LeftLeg  15.1212 7.14634 2.03144
LeftFoot  -1.19038 0.211989 -2.34097
LeftToes  -1.62803e-010 -2.57217e-011 -2.5681e-011
309
root  -6.43581 40.5454 3.10674 -100.087 -85.9356 96.2265
RightUpLeg  -9.1548 -16.7275 -7.04404
RightLeg  15.8122 -2.09563 2.7234
RightFoot  -0.464112 0.321689 -3.40662
RightToes  -2.9104e-010 0 -3.6325e-017
Spine  16.2621 -1.5507 7.08359
Spine1  16.4867 -0.514765 -0.31426
HEad  -31.0303 -14.082 7.99705
LeftShoulder1  8.29865 -12.8281 -44.2457
LeftArm  -9.43339 14.0976 -34.2523
LeftForeArm  36.0828 -19.6685 -3.28639
LeftHand  -0.244104 0.0205437 5.32207
RightShoulder  5.62306 9.90083 35.9682
RightArm  10.1653 -17.3376 31.9694
RightForeArm  -8.97186 25.3694 5.87896
RightHand  -1.25691 2.45124 -18.6828
LeftUpLeg  -9.27304 16.3884 0.206413
LeftLeg  19.6551 9.50706 4.12483
LeftFoot  -4.19916 0.184137 -2.57336
LeftToes  -1.62803e-010 -2.57217e-011 -2.5681e-011
310
root  -5.98007 40.5378 2.979 -96.8741 -85.9325 92.776
RightUpLeg  -9.31662 -16.1641 -6.98542
RightLeg  15.2136 -2.95325 2.99425
RightFoot  0.490357 0.402649 -3.85003
RightToes  -2.9104e-010 0 -3.6325e-017
Spine  15.926 -1.64974 7.16262
Spine1  16.2134 -0.733347 0.0840414
HEad  -30.8819 -14.3029 7.6652
LeftShoulder1  8.20539 -12.7133 -44.0485
LeftArm  -10.0814 15.0528 -34.5947
LeftForeArm  36.333 -18.2366 -3.47777
LeftHand  -0.244104 0.0205437 5.32207
RightShoulder  5.46145 9.6607 35.5162
RightArm  7.60143 -18.361 32.8721
RightForeArm  -7.58533 27.7161 6.37511
RightHand  -1.25835 2.58431 -18.4042
LeftUpLeg  -7.8865 15.5817 0.0330801
LeftLeg  24.17 10.4718 5.40948
LeftFoot  -6.21284 0.206719 -3.7923
LeftToes  -1.62803e-010 -2.57217e-011 -2.5681e-011
311
root  -5.4769 40.4911 2.88365 -94.7957 -86.0626 90.5519
RightUpLeg  -9.8444 -15.9416 -6.69721
RightLeg  14.9352 -3.32054 3.20298
RightFoot  1.45581 0.462958 -4.03826
RightToes  -2.9104e-010 0 -3.6325e-017
Spine  15.5364 -1.73598 7.27157
Spine1  15.9444 -0.917826 0.421677
HEad  -30.987 -14.2852 7.63893
LeftShoulder1  8.11938 -12.6304 -43.7984
LeftArm  -10.6244 15.8267 -34.7514
LeftForeArm  36.2211 -17.4772 -3.5763
LeftHand  -0.244104 0.0205437 5.32207
RightShoulder  5.34949 9.48656 35.2159
RightArm  4.5734 -19.1061 33.9007
RightForeArm  -6.81682 30.0094 6.90315
RightHand  -1.29128 2.74851 -18.5047
LeftUpLeg  -6.3529 14.542 -0.100894
LeftLeg  28.1065 9.59236 5.84216
LeftFoot  -8.07935 0.19509 -5.14668
LeftToes  -1.62803e-010 -2.57217e-011 -2.5681e-011
312
root  -4.90925 40.4169 2.81636 -92.3967 -86.2995 88.0265
RightUpLeg  -10.5158 -15.7597 -6.31205
RightLeg  14.6804 -3.59273 3.40901
RightFoot  2.47315 0.511572 -4.07784
RightToes  -2.9104e-010 0 -3.6325e-017
Spine  15.1052 -1.8027 7.35725
Spine1  15.7319 -1.10882 0.813901
HEad  -31.0967 -14.1456 7.77887
LeftShoulder1  8.09586 -12.6152 -43.7078
LeftArm  -10.7932 16.2449 -34.5928
LeftForeArm  36.0099 -17.3529 -3.58515
LeftHand  -0.244104 0.0205437 5.32207
RightShoulder  5.24691 9.30918 34.9894
RightArm  1.51063 -19.3331 34.9801
RightForeArm  -7.03624 31.8793 7.39984
RightHand  -1.42756 3.16376 -19.4389
LeftUpLeg  -4.62315 13.4065 -0.244207
LeftLeg  31.0429 8.42312 5.78114
LeftFoot  -9.90039 0.13687 -6.13267
LeftToes  -1.62803e-010 -2.57217e-011 -2.5681e-011
313
root  -4.27253 40.3134 2.77979 -87.5716 -86.616 83.0639
RightUpLeg  -11.2887 -15.4809 -5.837
RightLeg  14.4093 -4.1412 3.54653
RightFoot  3.51802 0.615204 -4.5246
RightToes  -2.9104e-010 0 -3.6325e-017
Spine  14.6832 -1.8972 7.47093
Spine1  15.5045 -1.33859 1.22942
HEad  -31.0419 -14.0564 7.88097
LeftShoulder1  8.10494 -12.6163 -43.7565
LeftArm  -10.5687 16.2601 -34.1649
LeftForeArm  35.7268 -17.8964 -3.50882
LeftHand  -0.244104 0.0205437 5.32207
RightShoulder  5.17083 9.15779 34.8801
RightArm  -1.42896 -19.103 35.9128
RightForeArm  -7.40032 33.2531 7.79126
RightHand  -1.64589 3.87569 -20.6757
LeftUpLeg  -2.81393 12.3557 -0.412807
LeftLeg  32.9288 7.4302 5.50323
LeftFoot  -11.0663 0.0831757 -6.85055
LeftToes  -1.62803e-010 -2.57217e-011 -2.5681e-011
314
root  -3.56972 40.166 2.77495 -79.2715 -86.9756 74.6189
RightUpLeg  -12.2487 -15.2956 -5.24812
RightLeg  14.3136 -4.84786 3.58165
RightFoot  4.53061 0.750548 -5.15674
RightToes  -2.9104e-010 0 -3.6325e-017
Spine  14.301 -2.0361 7.68003
Spine1  15.2164 -1.57336 1.57456
HEad  -30.7961 -14.077 7.84665
LeftShoulder1  8.07294 -12.5566 -43.7446
LeftArm  -10.2259 15.9432 -33.6924
LeftForeArm  35.3836 -19.1466 -3.33757
LeftHand  -0.244104 0.0205437 5.32207
RightShoulder  5.15639 9.08798 34.9899
RightArm  -3.86053 -18.5791 36.4127
RightForeArm  -7.3431 34.3634 8.09927
RightHand  -1.82004 4.47619 -21.4593
LeftUpLeg  -0.875474 11.39 -0.564295
LeftLeg  33.5301 6.19305 4.75421
LeftFoot  -11.1139 0.0819379 -7.52738
LeftToes  -1.62803e-010 -2.57217e-011 -2.5681e-011
315
root  -2.79217 40.002 2.78746 -69.3287 -87.2374 64.4423
RightUpLeg  -13.0854 -15.0422 -4.79584
RightLeg  13.9608 -5.66008 3.68972
RightFoot  5.67773 0.833188 -5.30622
RightToes  -2.9104e-010 0 -3.6325e-017
Spine  14.0541 -2.12879 7.75986
Spine1  14.8968 -1.74802 1.82851
HEad  -30.4916 -14.1401 7.74552
LeftShoulder1  7.99071 -12.4557 -43.5632
LeftArm  -10.2747 15.4714 -33.3855
LeftForeArm  35.3489 -21.2054 -3.148
LeftHand  -0.244104 0.0205437 5.32207
RightShoulder  5.18076 9.07467 35.2229
RightArm  -5.27926 -17.7748 36.4346
RightForeArm  -7.17038 35.3696 8.37977
RightHand  -1.87537 4.66917 -21.6791
LeftUpLeg  1.5009 10.6014 -0.731916
LeftLeg  32.0921 4.68248 3.51683
LeftFoot  -10.7569 0.103696 -7.90952
LeftToes  -1.62803e-010 -2.57217e-011 -2.5681e-011
316
root  -1.92337 39.8791 2.80123 -61.8317 -87.2248 56.5149
RightUpLeg  -13.3098 -14.1876 -4.81496
RightLeg  12.5082 -6.89291 4.03646
RightFoot  7.38449 0.956655 -5.47427
RightToes  -2.9104e-010 0 -3.6325e-017
Spine  14.0647 -2.08941 7.28161
Spine1  14.6172 -1.86399 1.9994
HEad  -30.4165 -14.1542 7.82169
LeftShoulder1  7.91837 -12.4084 -43.2817
LeftArm  -11.3312 14.9521 -33.1997
LeftForeArm  36.1623 -24.2011 -3.28676
LeftHand  -0.244104 0.0205437 5.32207
RightShoulder  5.19681 9.08339 35.3201
RightArm  -5.81067 -16.5863 36.3458
RightForeArm  -6.83807 36.1796 8.60059
RightHand  -1.85647 4.63681 -21.5336
LeftUpLeg  4.31159 10.3427 -1.04126
LeftLeg  28.276 3.59259 2.4314
LeftFoot  -11.5084 0.0606566 -7.14362
LeftToes  -1.62803e-010 -2.57217e-011 -2.5681e-011
